<svg xmlns="http://www.w3.org/2000/svg" viewBox="0 0 528.33 528.33"><title>MS_2019_Master_Emblem_Logo_Black</title><g id="Layer_2" data-name="Layer 2"><g id="Layer_1-2" data-name="Layer 1"><path d="M264.17,0C118.27,0,0,118.27,0,264.17S118.27,528.33,264.17,528.33,528.33,410.06,528.33,264.17,410.06,0,264.17,0Zm0,505.1C131.1,505.1,23.23,397.23,23.23,264.17S131.1,23.23,264.17,23.23,505.1,131.1,505.1,264.17,397.23,505.1,264.17,505.1Z"/><path d="M454.4,211.65l.06.06c-21.28-79.33-87.17-115.6-87.17-115.6l-7.4,11.61L264.31,257.35h-.06l-95.71-150-7.2-11.29s-65.89,36.27-87.17,115.6h0c-14.25,48.93-8.61,103.49,19.88,152.18A197.18,197.18,0,0,0,181,443l17.65-67.39C159,356.89,130.18,319,130.18,270.16A124.32,124.32,0,0,1,150.94,201l82.61,129.13H295L377.62,201a124.32,124.32,0,0,1,20.76,69.15c0,48.87-28.79,86.73-68.43,105.45L347.6,443a197.18,197.18,0,0,0,86.9-79.12C463,315.18,468.65,260.59,454.4,211.65Z"/></g></g></svg>